<svg version="1.1" baseProfile="full"
     width="510" height="187"
     xmlns="http://www.w3.org/2000/svg">
  <rect width="100%" height="100%" fill="beige"/>
  <rect x="7" y="105" width="45" height="15" style="fill:none;stroke:black;stroke-width:1" />
  <text x="30" y="119" font-family="Verdana" text-anchor="middle" font-size="14">DccA</text>
  <rect x="7" y="150" width="45" height="15" style="fill:none;stroke:black;stroke-width:1" />
  <text x="30" y="164" font-family="Verdana" text-anchor="middle" font-size="14">DccB</text>
  <rect x="82" y="105" width="45" height="60" style="fill:none;stroke:black;stroke-width:1" />
  <text x="105" y="142" font-family="Verdana" text-anchor="middle" font-size="14">Brkr</text>
  <rect x="457" y="105" width="45" height="15" style="fill:none;stroke:black;stroke-width:1" />
  <text x="480" y="119" font-family="Verdana" text-anchor="middle" font-size="14">X-trk</text>
  <rect x="457" y="150" width="45" height="15" style="fill:none;stroke:black;stroke-width:1" />
  <text x="480" y="164" font-family="Verdana" text-anchor="middle" font-size="14">Y-trk</text>
  <rect x="127" y="7" width="75" height="75" style="fill:none;stroke:black;stroke-width:1" />
  <text x="165" y="52" font-family="Verdana" text-anchor="middle" font-size="14">Pwr</text>
  <rect x="217" y="52" width="75" height="75" style="fill:none;stroke:black;stroke-width:1" />
  <text x="255" y="96" font-family="Verdana" text-anchor="middle" font-size="14">Det</text>
  <rect x="352" y="7" width="75" height="75" style="fill:none;stroke:black;stroke-width:1" />
  <text x="390" y="52" font-family="Verdana" text-anchor="middle" font-size="14">Processor</text>
  <rect x="352" y="105" width="75" height="60" style="fill:none;stroke:black;stroke-width:1" />
  <text x="390" y="142" font-family="Verdana" text-anchor="middle" font-size="14">Relay</text>
## locOf: + case, DccA+(15,0)
## locOf: + case, Brkr+(-15,15)
  <line x1="52" y1="112" x2="82" y2="112" style="stroke:red;stroke-width:1" />
## locOf: + case, Brkr+(15,15)
## locOf: + case, Det+(-25,-15)
  <line x1="127" y1="112" x2="217" y2="112" style="stroke:red;stroke-width:1" />
## locOf: + case, Det+(25,-15)
## locOf: + case, Relay+(-25,15)
  <line x1="292" y1="112" x2="352" y2="112" style="stroke:red;stroke-width:1" />
## locOf: + case, Relay+(25,15)
## locOf: + case, X-trk+(-15,0)
  <line x1="427" y1="112" x2="457" y2="112" style="stroke:red;stroke-width:1" />
## locOf: + case, DccB+(15,0)
## locOf: + case, Brkr+(-15,-15)
  <line x1="52" y1="157" x2="82" y2="157" style="stroke:blue;stroke-width:1" />
## locOf: + case, Brkr+(15,-15)
## locOf: + case, Relay+(-25,-15)
  <line x1="127" y1="157" x2="352" y2="157" style="stroke:blue;stroke-width:1" />
## locOf: + case, Relay+(25,-15)
## locOf: + case, Y-trk+(-15,0)
  <line x1="427" y1="157" x2="457" y2="157" style="stroke:blue;stroke-width:1" />
## locOf: + case, Det+(25,15)
## locOf: + case, +(40,0)
  <line x1="292" y1="67" x2="352" y2="67" style="stroke:black;stroke-width:1" />
## locOf: + case, Relay+(15,20)
## locOf: + case, Processor+(15,-25)
  <line x1="412" y1="105" x2="412" y2="82" style="stroke:black;stroke-width:1" />
## locOf: + case, Relay+(-15,20)
## locOf: + case, Processor+(-15,-25)
  <line x1="367" y1="105" x2="367" y2="82" style="stroke:black;stroke-width:1" />
## locOf: + case, Pwr+(-15,-25)
## locOf: + case, +(0,-20)
  <line x1="142" y1="82" x2="142" y2="112" style="stroke:red;stroke-width:1" />
## locOf: + case, Pwr+(15,-25)
## locOf: + case, +(0,-50)
  <line x1="187" y1="82" x2="187" y2="157" style="stroke:blue;stroke-width:1" />
## locOf: + case, Pwr+(25,15)
## locOf: + case, +(100,0)
  <line x1="202" y1="22" x2="352" y2="22" style="stroke:black;stroke-width:1" />
## locOf: + case, +(-90,5)
  <text x="217" y="22" font-family="Verdana" text-anchor="middle" font-size="14">Vb</text>
## locOf: + case, Det+(0,25)
## locOf: + case, +(0,20)
  <line x1="255" y1="52" x2="255" y2="22" style="stroke:black;stroke-width:1" />
## locOf: + case, Pwr+(0,-25)
## locOf: + case, +(0,-10)
  <line x1="165" y1="82" x2="165" y2="97" style="stroke:black;stroke-width:1" />
## locOf: + case, +(-3,6)
  <line x1="165" y1="97" x2="160" y2="88" style="stroke:black;stroke-width:1" />
## locOf: + case, +(6,0)
  <line x1="160" y1="88" x2="169" y2="88" style="stroke:black;stroke-width:1" />
## locOf: + case, +(-3,-6)
  <line x1="169" y1="88" x2="165" y2="97" style="stroke:black;stroke-width:1" />
## locOf: + case, Det+(0,-25)
## locOf: + case, +(0,-10)
  <line x1="255" y1="127" x2="255" y2="142" style="stroke:black;stroke-width:1" />
## locOf: + case, +(-3,6)
  <line x1="255" y1="142" x2="250" y2="133" style="stroke:black;stroke-width:1" />
## locOf: + case, +(6,0)
  <line x1="250" y1="133" x2="259" y2="133" style="stroke:black;stroke-width:1" />
## locOf: + case, +(-3,-6)
  <line x1="259" y1="133" x2="255" y2="142" style="stroke:black;stroke-width:1" />
## locOf: + case, Processor+(0,-25)
## locOf: + case, +(0,-10)
  <line x1="390" y1="82" x2="390" y2="97" style="stroke:black;stroke-width:1" />
## locOf: + case, +(-3,6)
  <line x1="390" y1="97" x2="385" y2="88" style="stroke:black;stroke-width:1" />
## locOf: + case, +(6,0)
  <line x1="385" y1="88" x2="394" y2="88" style="stroke:black;stroke-width:1" />
## locOf: + case, +(-3,-6)
  <line x1="394" y1="88" x2="390" y2="97" style="stroke:black;stroke-width:1" />
## locOf: + case, Relay+(0,-20)
## locOf: + case, +(0,-10)
  <line x1="390" y1="165" x2="390" y2="180" style="stroke:black;stroke-width:1" />
## locOf: + case, +(-3,6)
  <line x1="390" y1="180" x2="385" y2="171" style="stroke:black;stroke-width:1" />
## locOf: + case, +(6,0)
  <line x1="385" y1="171" x2="394" y2="171" style="stroke:black;stroke-width:1" />
## locOf: + case, +(-3,-6)
  <line x1="394" y1="171" x2="390" y2="180" style="stroke:black;stroke-width:1" />
</svg>

