<svg version="1.1" baseProfile="full"
     width="880" height="240"
     xmlns="http://www.w3.org/2000/svg">
  <rect width="100%" height="100%" fill="tan"/>
  <text x="40" y="40" font-family="Verdana" font-size="14">triple 75%</text>
  <text x="40" y="176" font-family="Verdana" text-anchor="middle" font-size="14">x0</text>
  <line   x1="40" y1="160" x2="104" y2="160" style="stroke:black;stroke-width:1" />
  <text x="128" y="148" font-family="Verdana" text-anchor="middle" font-size="14">38.3 mΩ</text>
  <line   x1="104" y1="160" x2="112" y2="160" style="stroke:black;stroke-width:1" />
  <line   x1="112" y1="160" x2="116" y2="152" style="stroke:black;stroke-width:1" />
  <line   x1="116" y1="152" x2="124" y2="168" style="stroke:black;stroke-width:1" />
  <line   x1="124" y1="168" x2="132" y2="152" style="stroke:black;stroke-width:1" />
  <line   x1="132" y1="152" x2="140" y2="168" style="stroke:black;stroke-width:1" />
  <line   x1="140" y1="168" x2="148" y2="152" style="stroke:black;stroke-width:1" />
  <line   x1="148" y1="152" x2="156" y2="168" style="stroke:black;stroke-width:1" />
  <line   x1="156" y1="168" x2="160" y2="160" style="stroke:black;stroke-width:1" />
  <line   x1="160" y1="160" x2="168" y2="160" style="stroke:black;stroke-width:1" />
  <line   x1="168" y1="160" x2="232" y2="160" style="stroke:black;stroke-width:1" />
  <text x="232" y="176" font-family="Verdana" text-anchor="middle" font-size="14">x2</text>

  <line   x1="232" y1="160" x2="296" y2="160" style="stroke:black;stroke-width:1" />
  <text x="320" y="148" font-family="Verdana" text-anchor="middle" font-size="14">38.3 mΩ</text>
  <line   x1="296" y1="160" x2="304" y2="160" style="stroke:black;stroke-width:1" />
  <line   x1="304" y1="160" x2="308" y2="152" style="stroke:black;stroke-width:1" />
  <line   x1="308" y1="152" x2="316" y2="168" style="stroke:black;stroke-width:1" />
  <line   x1="316" y1="168" x2="324" y2="152" style="stroke:black;stroke-width:1" />
  <line   x1="324" y1="152" x2="332" y2="168" style="stroke:black;stroke-width:1" />
  <line   x1="332" y1="168" x2="340" y2="152" style="stroke:black;stroke-width:1" />
  <line   x1="340" y1="152" x2="348" y2="168" style="stroke:black;stroke-width:1" />
  <line   x1="348" y1="168" x2="352" y2="160" style="stroke:black;stroke-width:1" />
  <line   x1="352" y1="160" x2="360" y2="160" style="stroke:black;stroke-width:1" />
  <line   x1="360" y1="160" x2="424" y2="160" style="stroke:black;stroke-width:1" />
  <text x="424" y="176" font-family="Verdana" text-anchor="middle" font-size="14">x4</text>

  <line   x1="424" y1="160" x2="488" y2="160" style="stroke:black;stroke-width:1" />
  <text x="512" y="148" font-family="Verdana" text-anchor="middle" font-size="14">38.3 mΩ</text>
  <line   x1="488" y1="160" x2="496" y2="160" style="stroke:black;stroke-width:1" />
  <line   x1="496" y1="160" x2="500" y2="152" style="stroke:black;stroke-width:1" />
  <line   x1="500" y1="152" x2="508" y2="168" style="stroke:black;stroke-width:1" />
  <line   x1="508" y1="168" x2="516" y2="152" style="stroke:black;stroke-width:1" />
  <line   x1="516" y1="152" x2="524" y2="168" style="stroke:black;stroke-width:1" />
  <line   x1="524" y1="168" x2="532" y2="152" style="stroke:black;stroke-width:1" />
  <line   x1="532" y1="152" x2="540" y2="168" style="stroke:black;stroke-width:1" />
  <line   x1="540" y1="168" x2="544" y2="160" style="stroke:black;stroke-width:1" />
  <line   x1="544" y1="160" x2="552" y2="160" style="stroke:black;stroke-width:1" />
  <line   x1="552" y1="160" x2="616" y2="160" style="stroke:black;stroke-width:1" />
  <text x="616" y="176" font-family="Verdana" text-anchor="middle" font-size="14">x5</text>

  <line   x1="616" y1="160" x2="680" y2="160" style="stroke:black;stroke-width:1" />
  <text x="704" y="148" font-family="Verdana" text-anchor="middle" font-size="14">38.3 mΩ</text>
  <line   x1="680" y1="160" x2="688" y2="160" style="stroke:black;stroke-width:1" />
  <line   x1="688" y1="160" x2="692" y2="152" style="stroke:black;stroke-width:1" />
  <line   x1="692" y1="152" x2="700" y2="168" style="stroke:black;stroke-width:1" />
  <line   x1="700" y1="168" x2="708" y2="152" style="stroke:black;stroke-width:1" />
  <line   x1="708" y1="152" x2="716" y2="168" style="stroke:black;stroke-width:1" />
  <line   x1="716" y1="168" x2="724" y2="152" style="stroke:black;stroke-width:1" />
  <line   x1="724" y1="152" x2="732" y2="168" style="stroke:black;stroke-width:1" />
  <line   x1="732" y1="168" x2="736" y2="160" style="stroke:black;stroke-width:1" />
  <line   x1="736" y1="160" x2="744" y2="160" style="stroke:black;stroke-width:1" />
  <line   x1="744" y1="160" x2="808" y2="160" style="stroke:black;stroke-width:1" />
  <text x="808" y="176" font-family="Verdana" text-anchor="middle" font-size="14">x6</text>

  <text x="244" y="120" font-family="Verdana" font-size="14">8.1 mΩ</text>
  <line   x1="232" y1="160" x2="232" y2="144" style="stroke:black;stroke-width:1" />
  <line   x1="232" y1="144" x2="240" y2="140" style="stroke:black;stroke-width:1" />
  <line   x1="240" y1="140" x2="224" y2="132" style="stroke:black;stroke-width:1" />
  <line   x1="224" y1="132" x2="240" y2="124" style="stroke:black;stroke-width:1" />
  <line   x1="240" y1="124" x2="224" y2="116" style="stroke:black;stroke-width:1" />
  <line   x1="224" y1="116" x2="240" y2="108" style="stroke:black;stroke-width:1" />
  <line   x1="240" y1="108" x2="224" y2="100" style="stroke:black;stroke-width:1" />
  <line   x1="224" y1="100" x2="232" y2="96" style="stroke:black;stroke-width:1" />
  <line   x1="232" y1="96" x2="232" y2="80" style="stroke:black;stroke-width:1" />
  <text x="436" y="120" font-family="Verdana" font-size="14">8.1 mΩ</text>
  <line   x1="424" y1="160" x2="424" y2="144" style="stroke:black;stroke-width:1" />
  <line   x1="424" y1="144" x2="432" y2="140" style="stroke:black;stroke-width:1" />
  <line   x1="432" y1="140" x2="416" y2="132" style="stroke:black;stroke-width:1" />
  <line   x1="416" y1="132" x2="432" y2="124" style="stroke:black;stroke-width:1" />
  <line   x1="432" y1="124" x2="416" y2="116" style="stroke:black;stroke-width:1" />
  <line   x1="416" y1="116" x2="432" y2="108" style="stroke:black;stroke-width:1" />
  <line   x1="432" y1="108" x2="416" y2="100" style="stroke:black;stroke-width:1" />
  <line   x1="416" y1="100" x2="424" y2="96" style="stroke:black;stroke-width:1" />
  <line   x1="424" y1="96" x2="424" y2="80" style="stroke:black;stroke-width:1" />
  <text x="628" y="120" font-family="Verdana" font-size="14">8.1 mΩ</text>
  <line   x1="616" y1="160" x2="616" y2="144" style="stroke:black;stroke-width:1" />
  <line   x1="616" y1="144" x2="624" y2="140" style="stroke:black;stroke-width:1" />
  <line   x1="624" y1="140" x2="608" y2="132" style="stroke:black;stroke-width:1" />
  <line   x1="608" y1="132" x2="624" y2="124" style="stroke:black;stroke-width:1" />
  <line   x1="624" y1="124" x2="608" y2="116" style="stroke:black;stroke-width:1" />
  <line   x1="608" y1="116" x2="624" y2="108" style="stroke:black;stroke-width:1" />
  <line   x1="624" y1="108" x2="608" y2="100" style="stroke:black;stroke-width:1" />
  <line   x1="608" y1="100" x2="616" y2="96" style="stroke:black;stroke-width:1" />
  <line   x1="616" y1="96" x2="616" y2="80" style="stroke:black;stroke-width:1" />
  <line   x1="232" y1="80" x2="296" y2="80" style="stroke:black;stroke-width:1" />
  <text x="320" y="68" font-family="Verdana" text-anchor="middle" font-size="14">245 mΩ</text>
  <line   x1="296" y1="80" x2="304" y2="80" style="stroke:black;stroke-width:1" />
  <line   x1="304" y1="80" x2="308" y2="72" style="stroke:black;stroke-width:1" />
  <line   x1="308" y1="72" x2="316" y2="88" style="stroke:black;stroke-width:1" />
  <line   x1="316" y1="88" x2="324" y2="72" style="stroke:black;stroke-width:1" />
  <line   x1="324" y1="72" x2="332" y2="88" style="stroke:black;stroke-width:1" />
  <line   x1="332" y1="88" x2="340" y2="72" style="stroke:black;stroke-width:1" />
  <line   x1="340" y1="72" x2="348" y2="88" style="stroke:black;stroke-width:1" />
  <line   x1="348" y1="88" x2="352" y2="80" style="stroke:black;stroke-width:1" />
  <line   x1="352" y1="80" x2="360" y2="80" style="stroke:black;stroke-width:1" />
  <line   x1="360" y1="80" x2="424" y2="80" style="stroke:black;stroke-width:1" />

  <line   x1="424" y1="80" x2="440" y2="80" style="stroke:black;stroke-width:1" />
  <text x="464" y="68" font-family="Verdana" text-anchor="middle" font-size="14">184 mΩ</text>
  <line   x1="440" y1="80" x2="448" y2="80" style="stroke:black;stroke-width:1" />
  <line   x1="448" y1="80" x2="452" y2="72" style="stroke:black;stroke-width:1" />
  <line   x1="452" y1="72" x2="460" y2="88" style="stroke:black;stroke-width:1" />
  <line   x1="460" y1="88" x2="468" y2="72" style="stroke:black;stroke-width:1" />
  <line   x1="468" y1="72" x2="476" y2="88" style="stroke:black;stroke-width:1" />
  <line   x1="476" y1="88" x2="484" y2="72" style="stroke:black;stroke-width:1" />
  <line   x1="484" y1="72" x2="492" y2="88" style="stroke:black;stroke-width:1" />
  <line   x1="492" y1="88" x2="496" y2="80" style="stroke:black;stroke-width:1" />
  <line   x1="496" y1="80" x2="504" y2="80" style="stroke:black;stroke-width:1" />
  <line   x1="504" y1="80" x2="520" y2="80" style="stroke:black;stroke-width:1" />

  <line   x1="520" y1="80" x2="536" y2="80" style="stroke:black;stroke-width:1" />
  <text x="560" y="68" font-family="Verdana" text-anchor="middle" font-size="14">61 mΩ</text>
  <line   x1="536" y1="80" x2="544" y2="80" style="stroke:black;stroke-width:1" />
  <line   x1="544" y1="80" x2="548" y2="72" style="stroke:black;stroke-width:1" />
  <line   x1="548" y1="72" x2="556" y2="88" style="stroke:black;stroke-width:1" />
  <line   x1="556" y1="88" x2="564" y2="72" style="stroke:black;stroke-width:1" />
  <line   x1="564" y1="72" x2="572" y2="88" style="stroke:black;stroke-width:1" />
  <line   x1="572" y1="88" x2="580" y2="72" style="stroke:black;stroke-width:1" />
  <line   x1="580" y1="72" x2="588" y2="88" style="stroke:black;stroke-width:1" />
  <line   x1="588" y1="88" x2="592" y2="80" style="stroke:black;stroke-width:1" />
  <line   x1="592" y1="80" x2="600" y2="80" style="stroke:black;stroke-width:1" />
  <line   x1="600" y1="80" x2="616" y2="80" style="stroke:black;stroke-width:1" />

  <text x="616" y="200" font-family="Verdana" text-anchor="middle" font-size="14">69.3 mΩ</text>
  <text x="424" y="200" font-family="Verdana" text-anchor="middle" font-size="14">68.9 mΩ</text>
  <text x="232" y="200" font-family="Verdana" text-anchor="middle" font-size="14">75.3 mΩ</text>
  <text x="568" y="40" font-family="Verdana" text-anchor="middle" font-size="14">113.6 mΩ</text>
</svg>
