<!--
 size 34 x 3, 16
             ___
 _______   _/_______    _________
________\_/_________\__/__________













 -->
<svg version="1.1" baseProfile="full"
     width="525" height="60"
     xmlns="http://www.w3.org/2000/svg">
  <text x="210" y="11" font-family="Verdana" font-size="12">Freight</text>
  <text x="30" y="26" font-family="Verdana" font-size="12">Iron</text>
  <text x="75" y="26" font-family="Verdana" font-size="12">Beer </text>
  <text x="390" y="26" font-family="Verdana" font-size="12">Foundry</text>
  <text x="465" y="26" font-family="Verdana" font-size="12">Spike</text>
  <text x="210" y="57" font-family="Verdana" font-size="12">MAIZEVILLE</text>
  <line   x1="210" y1="15" x2="225" y2="15" style="stroke:black;stroke-width:2" />
  <line   x1="225" y1="15" x2="240" y2="15" style="stroke:black;stroke-width:2" />
  <line   x1="240" y1="15" x2="255" y2="15" style="stroke:black;stroke-width:2" />

  <line   x1="30" y1="30" x2="45" y2="30" style="stroke:black;stroke-width:2" />
  <line   x1="45" y1="30" x2="60" y2="30" style="stroke:black;stroke-width:2" />
  <line   x1="60" y1="30" x2="75" y2="30" style="stroke:black;stroke-width:2" />
  <line   x1="75" y1="30" x2="90" y2="30" style="stroke:black;stroke-width:2" />
  <line   x1="90" y1="30" x2="105" y2="30" style="stroke:black;stroke-width:2" />
  <line   x1="105" y1="30" x2="120" y2="30" style="stroke:black;stroke-width:2" />
  <line   x1="120" y1="30" x2="135" y2="30" style="stroke:black;stroke-width:2" />
  <line   x1="180" y1="30" x2="195" y2="30" style="stroke:black;stroke-width:2" />
  <line   x1="195" y1="30" x2="210" y2="15" style="stroke:black;stroke-width:2" />
  <line   x1="210" y1="30" x2="225" y2="30" style="stroke:black;stroke-width:2" />
  <line   x1="195" y1="30" x2="210" y2="30" style="stroke:black;stroke-width:2" />
  <line   x1="225" y1="30" x2="240" y2="30" style="stroke:black;stroke-width:2" />
  <line   x1="240" y1="30" x2="255" y2="30" style="stroke:black;stroke-width:2" />
  <line   x1="255" y1="30" x2="270" y2="30" style="stroke:black;stroke-width:2" />
  <line   x1="270" y1="30" x2="285" y2="30" style="stroke:black;stroke-width:2" />
  <line   x1="285" y1="30" x2="300" y2="30" style="stroke:black;stroke-width:2" />
  <line   x1="300" y1="30" x2="315" y2="30" style="stroke:black;stroke-width:2" />
  <line   x1="375" y1="30" x2="390" y2="30" style="stroke:black;stroke-width:2" />
  <line   x1="390" y1="30" x2="405" y2="30" style="stroke:black;stroke-width:2" />
  <line   x1="405" y1="30" x2="420" y2="30" style="stroke:black;stroke-width:2" />
  <line   x1="420" y1="30" x2="435" y2="30" style="stroke:black;stroke-width:2" />
  <line   x1="435" y1="30" x2="450" y2="30" style="stroke:black;stroke-width:2" />
  <line   x1="450" y1="30" x2="465" y2="30" style="stroke:black;stroke-width:2" />
  <line   x1="465" y1="30" x2="480" y2="30" style="stroke:black;stroke-width:2" />
  <line   x1="480" y1="30" x2="495" y2="30" style="stroke:black;stroke-width:2" />
  <line   x1="495" y1="30" x2="510" y2="30" style="stroke:black;stroke-width:2" />

  <line   x1="15" y1="45" x2="30" y2="45" style="stroke:black;stroke-width:2" />
  <line   x1="30" y1="45" x2="45" y2="45" style="stroke:black;stroke-width:2" />
  <line   x1="45" y1="45" x2="60" y2="45" style="stroke:black;stroke-width:2" />
  <line   x1="60" y1="45" x2="75" y2="45" style="stroke:black;stroke-width:2" />
  <line   x1="75" y1="45" x2="90" y2="45" style="stroke:black;stroke-width:2" />
  <line   x1="90" y1="45" x2="105" y2="45" style="stroke:black;stroke-width:2" />
  <line   x1="105" y1="45" x2="120" y2="45" style="stroke:black;stroke-width:2" />
  <line   x1="120" y1="45" x2="135" y2="45" style="stroke:black;stroke-width:2" />
  <line   x1="135" y1="30" x2="150" y2="45" style="stroke:black;stroke-width:2" />
  <line   x1="135" y1="45" x2="150" y2="45" style="stroke:black;stroke-width:2" />
  <line   x1="150" y1="45" x2="165" y2="45" style="stroke:black;stroke-width:2" />
  <line   x1="165" y1="45" x2="180" y2="30" style="stroke:black;stroke-width:2" />
  <line   x1="180" y1="45" x2="195" y2="45" style="stroke:black;stroke-width:2" />
  <line   x1="165" y1="45" x2="180" y2="45" style="stroke:black;stroke-width:2" />
  <line   x1="195" y1="45" x2="210" y2="45" style="stroke:black;stroke-width:2" />
  <line   x1="210" y1="45" x2="225" y2="45" style="stroke:black;stroke-width:2" />
  <line   x1="225" y1="45" x2="240" y2="45" style="stroke:black;stroke-width:2" />
  <line   x1="240" y1="45" x2="255" y2="45" style="stroke:black;stroke-width:2" />
  <line   x1="255" y1="45" x2="270" y2="45" style="stroke:black;stroke-width:2" />
  <line   x1="270" y1="45" x2="285" y2="45" style="stroke:black;stroke-width:2" />
  <line   x1="285" y1="45" x2="300" y2="45" style="stroke:black;stroke-width:2" />
  <line   x1="300" y1="45" x2="315" y2="45" style="stroke:black;stroke-width:2" />
  <line   x1="315" y1="30" x2="330" y2="45" style="stroke:black;stroke-width:2" />
  <line   x1="315" y1="45" x2="330" y2="45" style="stroke:black;stroke-width:2" />
  <line   x1="330" y1="45" x2="345" y2="45" style="stroke:black;stroke-width:2" />
  <line   x1="345" y1="45" x2="360" y2="45" style="stroke:black;stroke-width:2" />
  <line   x1="360" y1="45" x2="375" y2="30" style="stroke:black;stroke-width:2" />
  <line   x1="375" y1="45" x2="390" y2="45" style="stroke:black;stroke-width:2" />
  <line   x1="360" y1="45" x2="375" y2="45" style="stroke:black;stroke-width:2" />
  <line   x1="390" y1="45" x2="405" y2="45" style="stroke:black;stroke-width:2" />
  <line   x1="405" y1="45" x2="420" y2="45" style="stroke:black;stroke-width:2" />
  <line   x1="420" y1="45" x2="435" y2="45" style="stroke:black;stroke-width:2" />
  <line   x1="435" y1="45" x2="450" y2="45" style="stroke:black;stroke-width:2" />
  <line   x1="450" y1="45" x2="465" y2="45" style="stroke:black;stroke-width:2" />
  <line   x1="465" y1="45" x2="480" y2="45" style="stroke:black;stroke-width:2" />
  <line   x1="480" y1="45" x2="495" y2="45" style="stroke:black;stroke-width:2" />
  <line   x1="495" y1="45" x2="510" y2="45" style="stroke:black;stroke-width:2" />
  <line   x1="510" y1="45" x2="525" y2="45" style="stroke:black;stroke-width:2" />

</svg>

