<svg version="1.1" baseProfile="full"
     width="550" height="538"
     xmlns="http://www.w3.org/2000/svg">

<!--     bldg       5    5  540  348 -->
 <rect   x="5" y="185" width="540" height="348" style="fill:none;stroke:black;stroke-width:1" />
  <line   x1="5" y1="482" x2="545" y2="482" style="stroke:black;stroke-width:1" />
  <line   x1="5" y1="533" x2="31" y2="510" style="stroke:black;stroke-width:1" />
  <line   x1="5" y1="482" x2="31" y2="510" style="stroke:black;stroke-width:1" />
  <line   x1="65" y1="533" x2="39" y2="510" style="stroke:black;stroke-width:1" />
  <line   x1="65" y1="482" x2="39" y2="510" style="stroke:black;stroke-width:1" />
  <line   x1="11" y1="533" x2="35" y2="514" style="stroke:black;stroke-width:1" />
  <line   x1="59" y1="533" x2="35" y2="514" style="stroke:black;stroke-width:1" />
  <line   x1="11" y1="482" x2="35" y2="506" style="stroke:black;stroke-width:1" />
  <line   x1="59" y1="482" x2="35" y2="506" style="stroke:black;stroke-width:1" />
  <line   x1="65" y1="533" x2="91" y2="510" style="stroke:black;stroke-width:1" />
  <line   x1="65" y1="482" x2="91" y2="510" style="stroke:black;stroke-width:1" />
  <line   x1="125" y1="533" x2="99" y2="510" style="stroke:black;stroke-width:1" />
  <line   x1="125" y1="482" x2="99" y2="510" style="stroke:black;stroke-width:1" />
  <line   x1="71" y1="533" x2="95" y2="514" style="stroke:black;stroke-width:1" />
  <line   x1="119" y1="533" x2="95" y2="514" style="stroke:black;stroke-width:1" />
  <line   x1="71" y1="482" x2="95" y2="506" style="stroke:black;stroke-width:1" />
  <line   x1="119" y1="482" x2="95" y2="506" style="stroke:black;stroke-width:1" />
  <line   x1="125" y1="533" x2="151" y2="510" style="stroke:black;stroke-width:1" />
  <line   x1="125" y1="482" x2="151" y2="510" style="stroke:black;stroke-width:1" />
  <line   x1="185" y1="533" x2="159" y2="510" style="stroke:black;stroke-width:1" />
  <line   x1="185" y1="482" x2="159" y2="510" style="stroke:black;stroke-width:1" />
  <line   x1="131" y1="533" x2="155" y2="514" style="stroke:black;stroke-width:1" />
  <line   x1="179" y1="533" x2="155" y2="514" style="stroke:black;stroke-width:1" />
  <line   x1="131" y1="482" x2="155" y2="506" style="stroke:black;stroke-width:1" />
  <line   x1="179" y1="482" x2="155" y2="506" style="stroke:black;stroke-width:1" />
  <line   x1="185" y1="533" x2="211" y2="510" style="stroke:black;stroke-width:1" />
  <line   x1="185" y1="482" x2="211" y2="510" style="stroke:black;stroke-width:1" />
  <line   x1="245" y1="533" x2="219" y2="510" style="stroke:black;stroke-width:1" />
  <line   x1="245" y1="482" x2="219" y2="510" style="stroke:black;stroke-width:1" />
  <line   x1="191" y1="533" x2="215" y2="514" style="stroke:black;stroke-width:1" />
  <line   x1="239" y1="533" x2="215" y2="514" style="stroke:black;stroke-width:1" />
  <line   x1="191" y1="482" x2="215" y2="506" style="stroke:black;stroke-width:1" />
  <line   x1="239" y1="482" x2="215" y2="506" style="stroke:black;stroke-width:1" />
  <line   x1="245" y1="533" x2="271" y2="510" style="stroke:black;stroke-width:1" />
  <line   x1="245" y1="482" x2="271" y2="510" style="stroke:black;stroke-width:1" />
  <line   x1="305" y1="533" x2="279" y2="510" style="stroke:black;stroke-width:1" />
  <line   x1="305" y1="482" x2="279" y2="510" style="stroke:black;stroke-width:1" />
  <line   x1="251" y1="533" x2="275" y2="514" style="stroke:black;stroke-width:1" />
  <line   x1="299" y1="533" x2="275" y2="514" style="stroke:black;stroke-width:1" />
  <line   x1="251" y1="482" x2="275" y2="506" style="stroke:black;stroke-width:1" />
  <line   x1="299" y1="482" x2="275" y2="506" style="stroke:black;stroke-width:1" />
  <line   x1="305" y1="533" x2="331" y2="510" style="stroke:black;stroke-width:1" />
  <line   x1="305" y1="482" x2="331" y2="510" style="stroke:black;stroke-width:1" />
  <line   x1="365" y1="533" x2="339" y2="510" style="stroke:black;stroke-width:1" />
  <line   x1="365" y1="482" x2="339" y2="510" style="stroke:black;stroke-width:1" />
  <line   x1="311" y1="533" x2="335" y2="514" style="stroke:black;stroke-width:1" />
  <line   x1="359" y1="533" x2="335" y2="514" style="stroke:black;stroke-width:1" />
  <line   x1="311" y1="482" x2="335" y2="506" style="stroke:black;stroke-width:1" />
  <line   x1="359" y1="482" x2="335" y2="506" style="stroke:black;stroke-width:1" />
  <line   x1="365" y1="533" x2="391" y2="510" style="stroke:black;stroke-width:1" />
  <line   x1="365" y1="482" x2="391" y2="510" style="stroke:black;stroke-width:1" />
  <line   x1="425" y1="533" x2="399" y2="510" style="stroke:black;stroke-width:1" />
  <line   x1="425" y1="482" x2="399" y2="510" style="stroke:black;stroke-width:1" />
  <line   x1="371" y1="533" x2="395" y2="514" style="stroke:black;stroke-width:1" />
  <line   x1="419" y1="533" x2="395" y2="514" style="stroke:black;stroke-width:1" />
  <line   x1="371" y1="482" x2="395" y2="506" style="stroke:black;stroke-width:1" />
  <line   x1="419" y1="482" x2="395" y2="506" style="stroke:black;stroke-width:1" />
  <line   x1="425" y1="533" x2="451" y2="510" style="stroke:black;stroke-width:1" />
  <line   x1="425" y1="482" x2="451" y2="510" style="stroke:black;stroke-width:1" />
  <line   x1="485" y1="533" x2="459" y2="510" style="stroke:black;stroke-width:1" />
  <line   x1="485" y1="482" x2="459" y2="510" style="stroke:black;stroke-width:1" />
  <line   x1="431" y1="533" x2="455" y2="514" style="stroke:black;stroke-width:1" />
  <line   x1="479" y1="533" x2="455" y2="514" style="stroke:black;stroke-width:1" />
  <line   x1="431" y1="482" x2="455" y2="506" style="stroke:black;stroke-width:1" />
  <line   x1="479" y1="482" x2="455" y2="506" style="stroke:black;stroke-width:1" />
  <line   x1="485" y1="533" x2="511" y2="510" style="stroke:black;stroke-width:1" />
  <line   x1="485" y1="482" x2="511" y2="510" style="stroke:black;stroke-width:1" />
  <line   x1="545" y1="533" x2="519" y2="510" style="stroke:black;stroke-width:1" />
  <line   x1="545" y1="482" x2="519" y2="510" style="stroke:black;stroke-width:1" />
  <line   x1="491" y1="533" x2="515" y2="514" style="stroke:black;stroke-width:1" />
  <line   x1="539" y1="533" x2="515" y2="514" style="stroke:black;stroke-width:1" />
  <line   x1="491" y1="482" x2="515" y2="506" style="stroke:black;stroke-width:1" />
  <line   x1="539" y1="482" x2="515" y2="506" style="stroke:black;stroke-width:1" />
  <line   x1="5" y1="185" x2="275" y2="5" style="stroke:black;stroke-width:1" />
  <line   x1="545" y1="185" x2="275" y2="5" style="stroke:black;stroke-width:1" />
  <line   x1="5" y1="478" x2="545" y2="478" style="stroke:black;stroke-width:1" />
  <line   x1="5" y1="334" x2="545" y2="334" style="stroke:black;stroke-width:1" />
 <rect   x="215" y="358" width="120" height="120" style="fill:none;stroke:black;stroke-width:1" />
 <rect   x="219" y="362" width="112" height="116" style="fill:none;stroke:black;stroke-width:1" />
  <line   x1="219" y1="478" x2="219" y2="362" style="stroke:lightgray;stroke-width:1" />
  <line   x1="223" y1="478" x2="223" y2="362" style="stroke:lightgray;stroke-width:1" />
  <line   x1="227" y1="478" x2="227" y2="362" style="stroke:lightgray;stroke-width:1" />
  <line   x1="231" y1="478" x2="231" y2="362" style="stroke:lightgray;stroke-width:1" />
  <line   x1="235" y1="478" x2="235" y2="362" style="stroke:lightgray;stroke-width:1" />
  <line   x1="239" y1="478" x2="239" y2="362" style="stroke:lightgray;stroke-width:1" />
  <line   x1="243" y1="478" x2="243" y2="362" style="stroke:lightgray;stroke-width:1" />
  <line   x1="247" y1="478" x2="247" y2="362" style="stroke:lightgray;stroke-width:1" />
  <line   x1="251" y1="478" x2="251" y2="362" style="stroke:lightgray;stroke-width:1" />
  <line   x1="255" y1="478" x2="255" y2="362" style="stroke:lightgray;stroke-width:1" />
  <line   x1="259" y1="478" x2="259" y2="362" style="stroke:lightgray;stroke-width:1" />
  <line   x1="263" y1="478" x2="263" y2="362" style="stroke:lightgray;stroke-width:1" />
  <line   x1="267" y1="478" x2="267" y2="362" style="stroke:lightgray;stroke-width:1" />
  <line   x1="271" y1="478" x2="271" y2="362" style="stroke:lightgray;stroke-width:1" />
  <line   x1="275" y1="478" x2="275" y2="362" style="stroke:lightgray;stroke-width:1" />
  <line   x1="279" y1="478" x2="279" y2="362" style="stroke:lightgray;stroke-width:1" />
  <line   x1="283" y1="478" x2="283" y2="362" style="stroke:lightgray;stroke-width:1" />
  <line   x1="287" y1="478" x2="287" y2="362" style="stroke:lightgray;stroke-width:1" />
  <line   x1="291" y1="478" x2="291" y2="362" style="stroke:lightgray;stroke-width:1" />
  <line   x1="295" y1="478" x2="295" y2="362" style="stroke:lightgray;stroke-width:1" />
  <line   x1="299" y1="478" x2="299" y2="362" style="stroke:lightgray;stroke-width:1" />
  <line   x1="303" y1="478" x2="303" y2="362" style="stroke:lightgray;stroke-width:1" />
  <line   x1="307" y1="478" x2="307" y2="362" style="stroke:lightgray;stroke-width:1" />
  <line   x1="311" y1="478" x2="311" y2="362" style="stroke:lightgray;stroke-width:1" />
  <line   x1="315" y1="478" x2="315" y2="362" style="stroke:lightgray;stroke-width:1" />
  <line   x1="319" y1="478" x2="319" y2="362" style="stroke:lightgray;stroke-width:1" />
  <line   x1="323" y1="478" x2="323" y2="362" style="stroke:lightgray;stroke-width:1" />
  <line   x1="327" y1="478" x2="327" y2="362" style="stroke:lightgray;stroke-width:1" />
  <line   x1="275" y1="478" x2="275" y2="362" style="stroke:black;stroke-width:1" />
 <rect   x="97" y="224" width="32" height="60" style="fill:none;stroke:black;stroke-width:1" />
 <rect   x="100" y="254" width="26" height="27" style="fill:none;stroke:black;stroke-width:1" />
 <rect   x="100" y="227" width="26" height="27" style="fill:none;stroke:black;stroke-width:1" />
  <line   x1="113" y1="254" x2="113" y2="227" style="stroke:black;stroke-width:1" />
  <line   x1="100" y1="240" x2="126" y2="240" style="stroke:black;stroke-width:1" />
 <rect   x="205" y="224" width="32" height="60" style="fill:none;stroke:black;stroke-width:1" />
 <rect   x="208" y="254" width="26" height="27" style="fill:none;stroke:black;stroke-width:1" />
 <rect   x="208" y="227" width="26" height="27" style="fill:none;stroke:black;stroke-width:1" />
  <line   x1="221" y1="254" x2="221" y2="227" style="stroke:black;stroke-width:1" />
  <line   x1="208" y1="240" x2="234" y2="240" style="stroke:black;stroke-width:1" />
 <rect   x="313" y="224" width="32" height="60" style="fill:none;stroke:black;stroke-width:1" />
 <rect   x="316" y="254" width="26" height="27" style="fill:none;stroke:black;stroke-width:1" />
 <rect   x="316" y="227" width="26" height="27" style="fill:none;stroke:black;stroke-width:1" />
  <line   x1="329" y1="254" x2="329" y2="227" style="stroke:black;stroke-width:1" />
  <line   x1="316" y1="240" x2="342" y2="240" style="stroke:black;stroke-width:1" />
 <rect   x="421" y="224" width="32" height="60" style="fill:none;stroke:black;stroke-width:1" />
 <rect   x="424" y="254" width="26" height="27" style="fill:none;stroke:black;stroke-width:1" />
 <rect   x="424" y="227" width="26" height="27" style="fill:none;stroke:black;stroke-width:1" />
  <line   x1="437" y1="254" x2="437" y2="227" style="stroke:black;stroke-width:1" />
  <line   x1="424" y1="240" x2="450" y2="240" style="stroke:black;stroke-width:1" />
  <text x="270" y="354" font-family="Verdana" text-anchor="middle" font-size="20">ACME Accordions</text>
</svg>

