<svg version="1.1" baseProfile="full"
     width="610" height="714"
     xmlns="http://www.w3.org/2000/svg">

<!--     bldg       5    5  600  504 -->
 <rect   x="5" y="205" width="600" height="504" style="fill:none;stroke:black;stroke-width:1" />
  <line   x1="5" y1="646" x2="605" y2="646" style="stroke:black;stroke-width:1" />
  <line   x1="5" y1="709" x2="38" y2="680" style="stroke:black;stroke-width:1" />
  <line   x1="5" y1="646" x2="38" y2="680" style="stroke:black;stroke-width:1" />
  <line   x1="80" y1="709" x2="46" y2="680" style="stroke:black;stroke-width:1" />
  <line   x1="80" y1="646" x2="46" y2="680" style="stroke:black;stroke-width:1" />
  <line   x1="11" y1="709" x2="42" y2="684" style="stroke:black;stroke-width:1" />
  <line   x1="74" y1="709" x2="42" y2="684" style="stroke:black;stroke-width:1" />
  <line   x1="11" y1="646" x2="42" y2="676" style="stroke:black;stroke-width:1" />
  <line   x1="74" y1="646" x2="42" y2="676" style="stroke:black;stroke-width:1" />
  <line   x1="80" y1="709" x2="113" y2="680" style="stroke:black;stroke-width:1" />
  <line   x1="80" y1="646" x2="113" y2="680" style="stroke:black;stroke-width:1" />
  <line   x1="155" y1="709" x2="121" y2="680" style="stroke:black;stroke-width:1" />
  <line   x1="155" y1="646" x2="121" y2="680" style="stroke:black;stroke-width:1" />
  <line   x1="86" y1="709" x2="117" y2="684" style="stroke:black;stroke-width:1" />
  <line   x1="149" y1="709" x2="117" y2="684" style="stroke:black;stroke-width:1" />
  <line   x1="86" y1="646" x2="117" y2="676" style="stroke:black;stroke-width:1" />
  <line   x1="149" y1="646" x2="117" y2="676" style="stroke:black;stroke-width:1" />
  <line   x1="155" y1="709" x2="188" y2="680" style="stroke:black;stroke-width:1" />
  <line   x1="155" y1="646" x2="188" y2="680" style="stroke:black;stroke-width:1" />
  <line   x1="230" y1="709" x2="196" y2="680" style="stroke:black;stroke-width:1" />
  <line   x1="230" y1="646" x2="196" y2="680" style="stroke:black;stroke-width:1" />
  <line   x1="161" y1="709" x2="192" y2="684" style="stroke:black;stroke-width:1" />
  <line   x1="224" y1="709" x2="192" y2="684" style="stroke:black;stroke-width:1" />
  <line   x1="161" y1="646" x2="192" y2="676" style="stroke:black;stroke-width:1" />
  <line   x1="224" y1="646" x2="192" y2="676" style="stroke:black;stroke-width:1" />
  <line   x1="230" y1="709" x2="263" y2="680" style="stroke:black;stroke-width:1" />
  <line   x1="230" y1="646" x2="263" y2="680" style="stroke:black;stroke-width:1" />
  <line   x1="305" y1="709" x2="271" y2="680" style="stroke:black;stroke-width:1" />
  <line   x1="305" y1="646" x2="271" y2="680" style="stroke:black;stroke-width:1" />
  <line   x1="236" y1="709" x2="267" y2="684" style="stroke:black;stroke-width:1" />
  <line   x1="299" y1="709" x2="267" y2="684" style="stroke:black;stroke-width:1" />
  <line   x1="236" y1="646" x2="267" y2="676" style="stroke:black;stroke-width:1" />
  <line   x1="299" y1="646" x2="267" y2="676" style="stroke:black;stroke-width:1" />
  <line   x1="305" y1="709" x2="338" y2="680" style="stroke:black;stroke-width:1" />
  <line   x1="305" y1="646" x2="338" y2="680" style="stroke:black;stroke-width:1" />
  <line   x1="380" y1="709" x2="346" y2="680" style="stroke:black;stroke-width:1" />
  <line   x1="380" y1="646" x2="346" y2="680" style="stroke:black;stroke-width:1" />
  <line   x1="311" y1="709" x2="342" y2="684" style="stroke:black;stroke-width:1" />
  <line   x1="374" y1="709" x2="342" y2="684" style="stroke:black;stroke-width:1" />
  <line   x1="311" y1="646" x2="342" y2="676" style="stroke:black;stroke-width:1" />
  <line   x1="374" y1="646" x2="342" y2="676" style="stroke:black;stroke-width:1" />
  <line   x1="380" y1="709" x2="413" y2="680" style="stroke:black;stroke-width:1" />
  <line   x1="380" y1="646" x2="413" y2="680" style="stroke:black;stroke-width:1" />
  <line   x1="455" y1="709" x2="421" y2="680" style="stroke:black;stroke-width:1" />
  <line   x1="455" y1="646" x2="421" y2="680" style="stroke:black;stroke-width:1" />
  <line   x1="386" y1="709" x2="417" y2="684" style="stroke:black;stroke-width:1" />
  <line   x1="449" y1="709" x2="417" y2="684" style="stroke:black;stroke-width:1" />
  <line   x1="386" y1="646" x2="417" y2="676" style="stroke:black;stroke-width:1" />
  <line   x1="449" y1="646" x2="417" y2="676" style="stroke:black;stroke-width:1" />
  <line   x1="455" y1="709" x2="488" y2="680" style="stroke:black;stroke-width:1" />
  <line   x1="455" y1="646" x2="488" y2="680" style="stroke:black;stroke-width:1" />
  <line   x1="530" y1="709" x2="496" y2="680" style="stroke:black;stroke-width:1" />
  <line   x1="530" y1="646" x2="496" y2="680" style="stroke:black;stroke-width:1" />
  <line   x1="461" y1="709" x2="492" y2="684" style="stroke:black;stroke-width:1" />
  <line   x1="524" y1="709" x2="492" y2="684" style="stroke:black;stroke-width:1" />
  <line   x1="461" y1="646" x2="492" y2="676" style="stroke:black;stroke-width:1" />
  <line   x1="524" y1="646" x2="492" y2="676" style="stroke:black;stroke-width:1" />
  <line   x1="530" y1="709" x2="563" y2="680" style="stroke:black;stroke-width:1" />
  <line   x1="530" y1="646" x2="563" y2="680" style="stroke:black;stroke-width:1" />
  <line   x1="605" y1="709" x2="571" y2="680" style="stroke:black;stroke-width:1" />
  <line   x1="605" y1="646" x2="571" y2="680" style="stroke:black;stroke-width:1" />
  <line   x1="536" y1="709" x2="567" y2="684" style="stroke:black;stroke-width:1" />
  <line   x1="599" y1="709" x2="567" y2="684" style="stroke:black;stroke-width:1" />
  <line   x1="536" y1="646" x2="567" y2="676" style="stroke:black;stroke-width:1" />
  <line   x1="599" y1="646" x2="567" y2="676" style="stroke:black;stroke-width:1" />
  <line   x1="5" y1="205" x2="305" y2="5" style="stroke:black;stroke-width:1" />
  <line   x1="605" y1="205" x2="305" y2="5" style="stroke:black;stroke-width:1" />
  <line   x1="5" y1="642" x2="605" y2="642" style="stroke:black;stroke-width:1" />
  <line   x1="5" y1="498" x2="605" y2="498" style="stroke:black;stroke-width:1" />
  <line   x1="5" y1="354" x2="605" y2="354" style="stroke:black;stroke-width:1" />
 <rect   x="245" y="522" width="120" height="120" style="fill:none;stroke:black;stroke-width:1" />
 <rect   x="249" y="526" width="112" height="116" style="fill:none;stroke:black;stroke-width:1" />
  <line   x1="249" y1="642" x2="249" y2="526" style="stroke:lightgray;stroke-width:1" />
  <line   x1="253" y1="642" x2="253" y2="526" style="stroke:lightgray;stroke-width:1" />
  <line   x1="257" y1="642" x2="257" y2="526" style="stroke:lightgray;stroke-width:1" />
  <line   x1="261" y1="642" x2="261" y2="526" style="stroke:lightgray;stroke-width:1" />
  <line   x1="265" y1="642" x2="265" y2="526" style="stroke:lightgray;stroke-width:1" />
  <line   x1="269" y1="642" x2="269" y2="526" style="stroke:lightgray;stroke-width:1" />
  <line   x1="273" y1="642" x2="273" y2="526" style="stroke:lightgray;stroke-width:1" />
  <line   x1="277" y1="642" x2="277" y2="526" style="stroke:lightgray;stroke-width:1" />
  <line   x1="281" y1="642" x2="281" y2="526" style="stroke:lightgray;stroke-width:1" />
  <line   x1="285" y1="642" x2="285" y2="526" style="stroke:lightgray;stroke-width:1" />
  <line   x1="289" y1="642" x2="289" y2="526" style="stroke:lightgray;stroke-width:1" />
  <line   x1="293" y1="642" x2="293" y2="526" style="stroke:lightgray;stroke-width:1" />
  <line   x1="297" y1="642" x2="297" y2="526" style="stroke:lightgray;stroke-width:1" />
  <line   x1="301" y1="642" x2="301" y2="526" style="stroke:lightgray;stroke-width:1" />
  <line   x1="305" y1="642" x2="305" y2="526" style="stroke:lightgray;stroke-width:1" />
  <line   x1="309" y1="642" x2="309" y2="526" style="stroke:lightgray;stroke-width:1" />
  <line   x1="313" y1="642" x2="313" y2="526" style="stroke:lightgray;stroke-width:1" />
  <line   x1="317" y1="642" x2="317" y2="526" style="stroke:lightgray;stroke-width:1" />
  <line   x1="321" y1="642" x2="321" y2="526" style="stroke:lightgray;stroke-width:1" />
  <line   x1="325" y1="642" x2="325" y2="526" style="stroke:lightgray;stroke-width:1" />
  <line   x1="329" y1="642" x2="329" y2="526" style="stroke:lightgray;stroke-width:1" />
  <line   x1="333" y1="642" x2="333" y2="526" style="stroke:lightgray;stroke-width:1" />
  <line   x1="337" y1="642" x2="337" y2="526" style="stroke:lightgray;stroke-width:1" />
  <line   x1="341" y1="642" x2="341" y2="526" style="stroke:lightgray;stroke-width:1" />
  <line   x1="345" y1="642" x2="345" y2="526" style="stroke:lightgray;stroke-width:1" />
  <line   x1="349" y1="642" x2="349" y2="526" style="stroke:lightgray;stroke-width:1" />
  <line   x1="353" y1="642" x2="353" y2="526" style="stroke:lightgray;stroke-width:1" />
  <line   x1="357" y1="642" x2="357" y2="526" style="stroke:lightgray;stroke-width:1" />
  <line   x1="305" y1="642" x2="305" y2="526" style="stroke:black;stroke-width:1" />
 <rect   x="109" y="388" width="32" height="60" style="fill:none;stroke:black;stroke-width:1" />
 <rect   x="112" y="418" width="26" height="27" style="fill:none;stroke:black;stroke-width:1" />
 <rect   x="112" y="391" width="26" height="27" style="fill:none;stroke:black;stroke-width:1" />
  <line   x1="125" y1="418" x2="125" y2="391" style="stroke:black;stroke-width:1" />
  <line   x1="112" y1="404" x2="138" y2="404" style="stroke:black;stroke-width:1" />
 <rect   x="229" y="388" width="32" height="60" style="fill:none;stroke:black;stroke-width:1" />
 <rect   x="232" y="418" width="26" height="27" style="fill:none;stroke:black;stroke-width:1" />
 <rect   x="232" y="391" width="26" height="27" style="fill:none;stroke:black;stroke-width:1" />
  <line   x1="245" y1="418" x2="245" y2="391" style="stroke:black;stroke-width:1" />
  <line   x1="232" y1="404" x2="258" y2="404" style="stroke:black;stroke-width:1" />
 <rect   x="349" y="388" width="32" height="60" style="fill:none;stroke:black;stroke-width:1" />
 <rect   x="352" y="418" width="26" height="27" style="fill:none;stroke:black;stroke-width:1" />
 <rect   x="352" y="391" width="26" height="27" style="fill:none;stroke:black;stroke-width:1" />
  <line   x1="365" y1="418" x2="365" y2="391" style="stroke:black;stroke-width:1" />
  <line   x1="352" y1="404" x2="378" y2="404" style="stroke:black;stroke-width:1" />
 <rect   x="469" y="388" width="32" height="60" style="fill:none;stroke:black;stroke-width:1" />
 <rect   x="472" y="418" width="26" height="27" style="fill:none;stroke:black;stroke-width:1" />
 <rect   x="472" y="391" width="26" height="27" style="fill:none;stroke:black;stroke-width:1" />
  <line   x1="485" y1="418" x2="485" y2="391" style="stroke:black;stroke-width:1" />
  <line   x1="472" y1="404" x2="498" y2="404" style="stroke:black;stroke-width:1" />
 <rect   x="109" y="244" width="32" height="60" style="fill:none;stroke:black;stroke-width:1" />
 <rect   x="112" y="274" width="26" height="27" style="fill:none;stroke:black;stroke-width:1" />
 <rect   x="112" y="247" width="26" height="27" style="fill:none;stroke:black;stroke-width:1" />
  <line   x1="125" y1="274" x2="125" y2="247" style="stroke:black;stroke-width:1" />
  <line   x1="112" y1="260" x2="138" y2="260" style="stroke:black;stroke-width:1" />
 <rect   x="229" y="244" width="32" height="60" style="fill:none;stroke:black;stroke-width:1" />
 <rect   x="232" y="274" width="26" height="27" style="fill:none;stroke:black;stroke-width:1" />
 <rect   x="232" y="247" width="26" height="27" style="fill:none;stroke:black;stroke-width:1" />
  <line   x1="245" y1="274" x2="245" y2="247" style="stroke:black;stroke-width:1" />
  <line   x1="232" y1="260" x2="258" y2="260" style="stroke:black;stroke-width:1" />
 <rect   x="349" y="244" width="32" height="60" style="fill:none;stroke:black;stroke-width:1" />
 <rect   x="352" y="274" width="26" height="27" style="fill:none;stroke:black;stroke-width:1" />
 <rect   x="352" y="247" width="26" height="27" style="fill:none;stroke:black;stroke-width:1" />
  <line   x1="365" y1="274" x2="365" y2="247" style="stroke:black;stroke-width:1" />
  <line   x1="352" y1="260" x2="378" y2="260" style="stroke:black;stroke-width:1" />
 <rect   x="469" y="244" width="32" height="60" style="fill:none;stroke:black;stroke-width:1" />
 <rect   x="472" y="274" width="26" height="27" style="fill:none;stroke:black;stroke-width:1" />
 <rect   x="472" y="247" width="26" height="27" style="fill:none;stroke:black;stroke-width:1" />
  <line   x1="485" y1="274" x2="485" y2="247" style="stroke:black;stroke-width:1" />
  <line   x1="472" y1="260" x2="498" y2="260" style="stroke:black;stroke-width:1" />
  <text x="300" y="518" font-family="Verdana" text-anchor="middle" font-size="20">Carlson Clothing</text>
</svg>

