<svg version="1.1" baseProfile="full"
     width="730" height="598"
     xmlns="http://www.w3.org/2000/svg">

<!--     bldg       5    5  720  348 -->
 <rect   x="5" y="245" width="720" height="348" style="fill:none;stroke:black;stroke-width:1" />
  <line   x1="5" y1="542" x2="725" y2="542" style="stroke:black;stroke-width:1" />
  <line   x1="5" y1="593" x2="31" y2="570" style="stroke:black;stroke-width:1" />
  <line   x1="5" y1="542" x2="31" y2="570" style="stroke:black;stroke-width:1" />
  <line   x1="65" y1="593" x2="39" y2="570" style="stroke:black;stroke-width:1" />
  <line   x1="65" y1="542" x2="39" y2="570" style="stroke:black;stroke-width:1" />
  <line   x1="11" y1="593" x2="35" y2="574" style="stroke:black;stroke-width:1" />
  <line   x1="59" y1="593" x2="35" y2="574" style="stroke:black;stroke-width:1" />
  <line   x1="11" y1="542" x2="35" y2="566" style="stroke:black;stroke-width:1" />
  <line   x1="59" y1="542" x2="35" y2="566" style="stroke:black;stroke-width:1" />
  <line   x1="65" y1="593" x2="91" y2="570" style="stroke:black;stroke-width:1" />
  <line   x1="65" y1="542" x2="91" y2="570" style="stroke:black;stroke-width:1" />
  <line   x1="125" y1="593" x2="99" y2="570" style="stroke:black;stroke-width:1" />
  <line   x1="125" y1="542" x2="99" y2="570" style="stroke:black;stroke-width:1" />
  <line   x1="71" y1="593" x2="95" y2="574" style="stroke:black;stroke-width:1" />
  <line   x1="119" y1="593" x2="95" y2="574" style="stroke:black;stroke-width:1" />
  <line   x1="71" y1="542" x2="95" y2="566" style="stroke:black;stroke-width:1" />
  <line   x1="119" y1="542" x2="95" y2="566" style="stroke:black;stroke-width:1" />
  <line   x1="125" y1="593" x2="151" y2="570" style="stroke:black;stroke-width:1" />
  <line   x1="125" y1="542" x2="151" y2="570" style="stroke:black;stroke-width:1" />
  <line   x1="185" y1="593" x2="159" y2="570" style="stroke:black;stroke-width:1" />
  <line   x1="185" y1="542" x2="159" y2="570" style="stroke:black;stroke-width:1" />
  <line   x1="131" y1="593" x2="155" y2="574" style="stroke:black;stroke-width:1" />
  <line   x1="179" y1="593" x2="155" y2="574" style="stroke:black;stroke-width:1" />
  <line   x1="131" y1="542" x2="155" y2="566" style="stroke:black;stroke-width:1" />
  <line   x1="179" y1="542" x2="155" y2="566" style="stroke:black;stroke-width:1" />
  <line   x1="185" y1="593" x2="211" y2="570" style="stroke:black;stroke-width:1" />
  <line   x1="185" y1="542" x2="211" y2="570" style="stroke:black;stroke-width:1" />
  <line   x1="245" y1="593" x2="219" y2="570" style="stroke:black;stroke-width:1" />
  <line   x1="245" y1="542" x2="219" y2="570" style="stroke:black;stroke-width:1" />
  <line   x1="191" y1="593" x2="215" y2="574" style="stroke:black;stroke-width:1" />
  <line   x1="239" y1="593" x2="215" y2="574" style="stroke:black;stroke-width:1" />
  <line   x1="191" y1="542" x2="215" y2="566" style="stroke:black;stroke-width:1" />
  <line   x1="239" y1="542" x2="215" y2="566" style="stroke:black;stroke-width:1" />
  <line   x1="245" y1="593" x2="271" y2="570" style="stroke:black;stroke-width:1" />
  <line   x1="245" y1="542" x2="271" y2="570" style="stroke:black;stroke-width:1" />
  <line   x1="305" y1="593" x2="279" y2="570" style="stroke:black;stroke-width:1" />
  <line   x1="305" y1="542" x2="279" y2="570" style="stroke:black;stroke-width:1" />
  <line   x1="251" y1="593" x2="275" y2="574" style="stroke:black;stroke-width:1" />
  <line   x1="299" y1="593" x2="275" y2="574" style="stroke:black;stroke-width:1" />
  <line   x1="251" y1="542" x2="275" y2="566" style="stroke:black;stroke-width:1" />
  <line   x1="299" y1="542" x2="275" y2="566" style="stroke:black;stroke-width:1" />
  <line   x1="305" y1="593" x2="331" y2="570" style="stroke:black;stroke-width:1" />
  <line   x1="305" y1="542" x2="331" y2="570" style="stroke:black;stroke-width:1" />
  <line   x1="365" y1="593" x2="339" y2="570" style="stroke:black;stroke-width:1" />
  <line   x1="365" y1="542" x2="339" y2="570" style="stroke:black;stroke-width:1" />
  <line   x1="311" y1="593" x2="335" y2="574" style="stroke:black;stroke-width:1" />
  <line   x1="359" y1="593" x2="335" y2="574" style="stroke:black;stroke-width:1" />
  <line   x1="311" y1="542" x2="335" y2="566" style="stroke:black;stroke-width:1" />
  <line   x1="359" y1="542" x2="335" y2="566" style="stroke:black;stroke-width:1" />
  <line   x1="365" y1="593" x2="391" y2="570" style="stroke:black;stroke-width:1" />
  <line   x1="365" y1="542" x2="391" y2="570" style="stroke:black;stroke-width:1" />
  <line   x1="425" y1="593" x2="399" y2="570" style="stroke:black;stroke-width:1" />
  <line   x1="425" y1="542" x2="399" y2="570" style="stroke:black;stroke-width:1" />
  <line   x1="371" y1="593" x2="395" y2="574" style="stroke:black;stroke-width:1" />
  <line   x1="419" y1="593" x2="395" y2="574" style="stroke:black;stroke-width:1" />
  <line   x1="371" y1="542" x2="395" y2="566" style="stroke:black;stroke-width:1" />
  <line   x1="419" y1="542" x2="395" y2="566" style="stroke:black;stroke-width:1" />
  <line   x1="425" y1="593" x2="451" y2="570" style="stroke:black;stroke-width:1" />
  <line   x1="425" y1="542" x2="451" y2="570" style="stroke:black;stroke-width:1" />
  <line   x1="485" y1="593" x2="459" y2="570" style="stroke:black;stroke-width:1" />
  <line   x1="485" y1="542" x2="459" y2="570" style="stroke:black;stroke-width:1" />
  <line   x1="431" y1="593" x2="455" y2="574" style="stroke:black;stroke-width:1" />
  <line   x1="479" y1="593" x2="455" y2="574" style="stroke:black;stroke-width:1" />
  <line   x1="431" y1="542" x2="455" y2="566" style="stroke:black;stroke-width:1" />
  <line   x1="479" y1="542" x2="455" y2="566" style="stroke:black;stroke-width:1" />
  <line   x1="485" y1="593" x2="511" y2="570" style="stroke:black;stroke-width:1" />
  <line   x1="485" y1="542" x2="511" y2="570" style="stroke:black;stroke-width:1" />
  <line   x1="545" y1="593" x2="519" y2="570" style="stroke:black;stroke-width:1" />
  <line   x1="545" y1="542" x2="519" y2="570" style="stroke:black;stroke-width:1" />
  <line   x1="491" y1="593" x2="515" y2="574" style="stroke:black;stroke-width:1" />
  <line   x1="539" y1="593" x2="515" y2="574" style="stroke:black;stroke-width:1" />
  <line   x1="491" y1="542" x2="515" y2="566" style="stroke:black;stroke-width:1" />
  <line   x1="539" y1="542" x2="515" y2="566" style="stroke:black;stroke-width:1" />
  <line   x1="545" y1="593" x2="571" y2="570" style="stroke:black;stroke-width:1" />
  <line   x1="545" y1="542" x2="571" y2="570" style="stroke:black;stroke-width:1" />
  <line   x1="605" y1="593" x2="579" y2="570" style="stroke:black;stroke-width:1" />
  <line   x1="605" y1="542" x2="579" y2="570" style="stroke:black;stroke-width:1" />
  <line   x1="551" y1="593" x2="575" y2="574" style="stroke:black;stroke-width:1" />
  <line   x1="599" y1="593" x2="575" y2="574" style="stroke:black;stroke-width:1" />
  <line   x1="551" y1="542" x2="575" y2="566" style="stroke:black;stroke-width:1" />
  <line   x1="599" y1="542" x2="575" y2="566" style="stroke:black;stroke-width:1" />
  <line   x1="605" y1="593" x2="631" y2="570" style="stroke:black;stroke-width:1" />
  <line   x1="605" y1="542" x2="631" y2="570" style="stroke:black;stroke-width:1" />
  <line   x1="665" y1="593" x2="639" y2="570" style="stroke:black;stroke-width:1" />
  <line   x1="665" y1="542" x2="639" y2="570" style="stroke:black;stroke-width:1" />
  <line   x1="611" y1="593" x2="635" y2="574" style="stroke:black;stroke-width:1" />
  <line   x1="659" y1="593" x2="635" y2="574" style="stroke:black;stroke-width:1" />
  <line   x1="611" y1="542" x2="635" y2="566" style="stroke:black;stroke-width:1" />
  <line   x1="659" y1="542" x2="635" y2="566" style="stroke:black;stroke-width:1" />
  <line   x1="665" y1="593" x2="691" y2="570" style="stroke:black;stroke-width:1" />
  <line   x1="665" y1="542" x2="691" y2="570" style="stroke:black;stroke-width:1" />
  <line   x1="725" y1="593" x2="699" y2="570" style="stroke:black;stroke-width:1" />
  <line   x1="725" y1="542" x2="699" y2="570" style="stroke:black;stroke-width:1" />
  <line   x1="671" y1="593" x2="695" y2="574" style="stroke:black;stroke-width:1" />
  <line   x1="719" y1="593" x2="695" y2="574" style="stroke:black;stroke-width:1" />
  <line   x1="671" y1="542" x2="695" y2="566" style="stroke:black;stroke-width:1" />
  <line   x1="719" y1="542" x2="695" y2="566" style="stroke:black;stroke-width:1" />
  <line   x1="5" y1="245" x2="365" y2="5" style="stroke:black;stroke-width:1" />
  <line   x1="725" y1="245" x2="365" y2="5" style="stroke:black;stroke-width:1" />
  <line   x1="5" y1="538" x2="725" y2="538" style="stroke:black;stroke-width:1" />
  <line   x1="5" y1="394" x2="725" y2="394" style="stroke:black;stroke-width:1" />
 <rect   x="305" y="418" width="120" height="120" style="fill:none;stroke:black;stroke-width:1" />
 <rect   x="309" y="422" width="112" height="116" style="fill:none;stroke:black;stroke-width:1" />
  <line   x1="309" y1="538" x2="309" y2="422" style="stroke:lightgray;stroke-width:1" />
  <line   x1="313" y1="538" x2="313" y2="422" style="stroke:lightgray;stroke-width:1" />
  <line   x1="317" y1="538" x2="317" y2="422" style="stroke:lightgray;stroke-width:1" />
  <line   x1="321" y1="538" x2="321" y2="422" style="stroke:lightgray;stroke-width:1" />
  <line   x1="325" y1="538" x2="325" y2="422" style="stroke:lightgray;stroke-width:1" />
  <line   x1="329" y1="538" x2="329" y2="422" style="stroke:lightgray;stroke-width:1" />
  <line   x1="333" y1="538" x2="333" y2="422" style="stroke:lightgray;stroke-width:1" />
  <line   x1="337" y1="538" x2="337" y2="422" style="stroke:lightgray;stroke-width:1" />
  <line   x1="341" y1="538" x2="341" y2="422" style="stroke:lightgray;stroke-width:1" />
  <line   x1="345" y1="538" x2="345" y2="422" style="stroke:lightgray;stroke-width:1" />
  <line   x1="349" y1="538" x2="349" y2="422" style="stroke:lightgray;stroke-width:1" />
  <line   x1="353" y1="538" x2="353" y2="422" style="stroke:lightgray;stroke-width:1" />
  <line   x1="357" y1="538" x2="357" y2="422" style="stroke:lightgray;stroke-width:1" />
  <line   x1="361" y1="538" x2="361" y2="422" style="stroke:lightgray;stroke-width:1" />
  <line   x1="365" y1="538" x2="365" y2="422" style="stroke:lightgray;stroke-width:1" />
  <line   x1="369" y1="538" x2="369" y2="422" style="stroke:lightgray;stroke-width:1" />
  <line   x1="373" y1="538" x2="373" y2="422" style="stroke:lightgray;stroke-width:1" />
  <line   x1="377" y1="538" x2="377" y2="422" style="stroke:lightgray;stroke-width:1" />
  <line   x1="381" y1="538" x2="381" y2="422" style="stroke:lightgray;stroke-width:1" />
  <line   x1="385" y1="538" x2="385" y2="422" style="stroke:lightgray;stroke-width:1" />
  <line   x1="389" y1="538" x2="389" y2="422" style="stroke:lightgray;stroke-width:1" />
  <line   x1="393" y1="538" x2="393" y2="422" style="stroke:lightgray;stroke-width:1" />
  <line   x1="397" y1="538" x2="397" y2="422" style="stroke:lightgray;stroke-width:1" />
  <line   x1="401" y1="538" x2="401" y2="422" style="stroke:lightgray;stroke-width:1" />
  <line   x1="405" y1="538" x2="405" y2="422" style="stroke:lightgray;stroke-width:1" />
  <line   x1="409" y1="538" x2="409" y2="422" style="stroke:lightgray;stroke-width:1" />
  <line   x1="413" y1="538" x2="413" y2="422" style="stroke:lightgray;stroke-width:1" />
  <line   x1="417" y1="538" x2="417" y2="422" style="stroke:lightgray;stroke-width:1" />
  <line   x1="365" y1="538" x2="365" y2="422" style="stroke:black;stroke-width:1" />
 <rect   x="133" y="284" width="32" height="60" style="fill:none;stroke:black;stroke-width:1" />
 <rect   x="136" y="314" width="26" height="27" style="fill:none;stroke:black;stroke-width:1" />
 <rect   x="136" y="287" width="26" height="27" style="fill:none;stroke:black;stroke-width:1" />
  <line   x1="149" y1="314" x2="149" y2="287" style="stroke:black;stroke-width:1" />
  <line   x1="136" y1="300" x2="162" y2="300" style="stroke:black;stroke-width:1" />
 <rect   x="277" y="284" width="32" height="60" style="fill:none;stroke:black;stroke-width:1" />
 <rect   x="280" y="314" width="26" height="27" style="fill:none;stroke:black;stroke-width:1" />
 <rect   x="280" y="287" width="26" height="27" style="fill:none;stroke:black;stroke-width:1" />
  <line   x1="293" y1="314" x2="293" y2="287" style="stroke:black;stroke-width:1" />
  <line   x1="280" y1="300" x2="306" y2="300" style="stroke:black;stroke-width:1" />
 <rect   x="421" y="284" width="32" height="60" style="fill:none;stroke:black;stroke-width:1" />
 <rect   x="424" y="314" width="26" height="27" style="fill:none;stroke:black;stroke-width:1" />
 <rect   x="424" y="287" width="26" height="27" style="fill:none;stroke:black;stroke-width:1" />
  <line   x1="437" y1="314" x2="437" y2="287" style="stroke:black;stroke-width:1" />
  <line   x1="424" y1="300" x2="450" y2="300" style="stroke:black;stroke-width:1" />
 <rect   x="565" y="284" width="32" height="60" style="fill:none;stroke:black;stroke-width:1" />
 <rect   x="568" y="314" width="26" height="27" style="fill:none;stroke:black;stroke-width:1" />
 <rect   x="568" y="287" width="26" height="27" style="fill:none;stroke:black;stroke-width:1" />
  <line   x1="581" y1="314" x2="581" y2="287" style="stroke:black;stroke-width:1" />
  <line   x1="568" y1="300" x2="594" y2="300" style="stroke:black;stroke-width:1" />
  <text x="360" y="414" font-family="Verdana" text-anchor="middle" font-size="20">Mitchell Machine Co.</text>
</svg>

